HIERARCHY
ROOT Pelvis
{
	OFFSET 0.000000 0.000000 0.000000
	CHANNELS 6 Xposition Yposition Zposition Xrotation Yrotation Zrotation
	JOINT LeftUpLeg_virtual
	{
		OFFSET 0.000000 0.000000 0.000000
		CHANNELS 3 Xrotation Yrotation Zrotation
		JOINT LeftUpLeg
		{
			OFFSET 8.479700 -4.795502 -0.379100
			CHANNELS 3 Xrotation Yrotation Zrotation
			JOINT LeftLeg
			{
				OFFSET 0.024144 -32.555107 0.112900
				CHANNELS 3 Xrotation Yrotation Zrotation
				JOINT LeftFoot
				{
					OFFSET -0.024144 -32.638630 -3.012600
					CHANNELS 3 Xrotation Yrotation Zrotation
					JOINT LeftToeBase
					{
						OFFSET 0.970200 -13.225400 11.864200
						CHANNELS 3 Xrotation Yrotation Zrotation
						End Site
						{
							OFFSET 0 0 0
						}
					}
				}
			}
		}
	}
	JOINT RightUpLeg_virtual
	{
		OFFSET 0.000000 0.000000 0.000000
		CHANNELS 3 Xrotation Yrotation Zrotation
		JOINT RightUpLeg
		{
			OFFSET -8.479700 -4.795502 -0.379100
			CHANNELS 3 Xrotation Yrotation Zrotation
			JOINT RightLeg
			{
				OFFSET -0.023144 -32.555092 0.112900
				CHANNELS 3 Xrotation Yrotation Zrotation
				JOINT RightFoot
				{
					OFFSET 0.023144 -32.638641 -3.012700
					CHANNELS 3 Xrotation Yrotation Zrotation
					JOINT RightToeBase
					{
						OFFSET -0.970200 -13.225400 11.864200
						CHANNELS 3 Xrotation Yrotation Zrotation
						End Site
						{
							OFFSET 0 0 0
						}
					}
				}
			}
		}
	}
	JOINT Hips_virtual
	{
		OFFSET 0.000000 0.000000 0.000000
		CHANNELS 3 Xrotation Yrotation Zrotation
		JOINT Hips
		{
			OFFSET -0.000000 -0.000000 -0.000000
			CHANNELS 3 Xrotation Yrotation Zrotation
			JOINT Spine
			{
				OFFSET 0.000000 7.722000 1.166200
				CHANNELS 3 Xrotation Yrotation Zrotation
				JOINT Spine1
				{
					OFFSET 0.000000 12.024101 0.248800
					CHANNELS 3 Xrotation Yrotation Zrotation
					JOINT Spine2
					{
						OFFSET 0.000000 11.502998 -0.491200
						CHANNELS 3 Xrotation Yrotation Zrotation
						JOINT Neck_virtual
						{
							OFFSET 0.000000 0.000000 0.000000
							CHANNELS 3 Xrotation Yrotation Zrotation
							JOINT Neck
							{
								OFFSET 0.000000 18.430702 -3.123100
								CHANNELS 3 Xrotation Yrotation Zrotation
								JOINT Head
								{
									OFFSET 0.000000 9.051102 1.034000
									CHANNELS 3 Xrotation Yrotation Zrotation
									End Site
									{
										OFFSET 0 0 0
									}
								}
							}
						}
						JOINT LeftShoulder_virtual
						{
							OFFSET 0.000000 0.000000 0.000000
							CHANNELS 3 Xrotation Yrotation Zrotation
							JOINT LeftShoulder
							{
								OFFSET 6.197800 13.665199 -4.064700
								CHANNELS 3 Xrotation Yrotation Zrotation
								JOINT LeftArm
								{
									OFFSET 7.778100 -0.187103 -1.709300
									CHANNELS 3 Xrotation Yrotation Zrotation
									JOINT LeftForeArm
									{
										OFFSET 22.049376 0.000000 0.000000
										CHANNELS 3 Xrotation Yrotation Zrotation
										JOINT LeftHand
										{
											OFFSET 23.009392 0.000000 0.000000
											CHANNELS 3 Xrotation Yrotation Zrotation
											End Site
											{
												OFFSET 0 0 0
											}
										}
									}
								}
							}
						}
						JOINT RightShoulder_virtual
						{
							OFFSET 0.000000 0.000000 0.000000
							CHANNELS 3 Xrotation Yrotation Zrotation
							JOINT RightShoulder
							{
								OFFSET -6.197800 13.665199 -4.064700
								CHANNELS 3 Xrotation Yrotation Zrotation
								JOINT RightArm
								{
									OFFSET -7.778100 -0.187103 -1.709300
									CHANNELS 3 Xrotation Yrotation Zrotation
									JOINT RightForeArm
									{
										OFFSET -22.049376 0.000000 0.000000
										CHANNELS 3 Xrotation Yrotation Zrotation
										JOINT RightHand
										{
											OFFSET -23.009392 0.000000 0.000000
											CHANNELS 3 Xrotation Yrotation Zrotation
											End Site
											{
												OFFSET 0 0 0
											}
										}
									}
								}
							}
						}
					}
				}
			}
		}
	}
}
MOTION
Frames: 11
Frame Time: 0.03333333
0.460254 81.901711 -0.765659 0.000000 0.000000 0.000000 2.912559 -28.989358 1.159703 -17.357693 18.233458 10.849020 16.411341 13.218796 -0.947355 -1.368229 -4.092739 -5.000170 0.000000 0.000000 0.000000 2.912559 -28.989358 1.159703 -8.103634 -1.525981 -9.109784 10.357558 9.489573 0.825157 -5.500853 -0.869742 7.456793 0.000000 0.000000 0.000000 2.912559 -28.989358 1.159703 0.000000 0.000001 0.000000 7.836165 -0.359806 -2.651726 1.099246 -0.880570 2.383464 0.000000 0.000000 0.000000 1.108682 -0.590427 2.446362 -3.841824 18.019029 -6.496413 0.000000 0.000000 0.000000 1.108682 -0.590427 2.446362 -0.057075 -8.759465 -0.061260 -55.250763 0.329480 -41.449375 11.584382 -65.827341 13.005502 0.000000 0.000000 0.000000 1.108682 -0.590427 2.446362 4.849290 7.760142 5.560469 -0.933499 -2.176888 61.845655 11.299295 18.943451 -3.987613 0.000000 0.000000 0.000000 
0.512984 81.887405 -0.793095 0.000000 0.000000 0.000000 2.891352 -29.078523 1.165057 -17.421781 18.232903 10.833407 16.553954 13.237170 -0.947480 -1.424521 -4.032627 -4.980009 0.000000 0.000000 0.000000 2.891352 -29.078523 1.165057 -8.232445 -1.488992 -9.157719 10.524305 9.482375 0.824575 -5.531065 -0.782370 7.487598 0.000000 0.000000 0.000000 2.891352 -29.078523 1.165057 0.000000 -0.000001 0.000000 7.936608 -0.338743 -2.595823 1.080460 -0.850003 2.358318 0.000000 0.000000 0.000000 1.088653 -0.565139 2.416398 -3.855336 18.005323 -6.571707 0.000000 0.000000 0.000000 1.088653 -0.565139 2.416398 -0.057072 -8.759436 -0.061266 -55.271421 0.413092 -41.445219 11.503868 -65.871096 12.918219 0.000000 0.000000 0.000000 1.088653 -0.565139 2.416398 4.865851 7.713965 5.066076 -1.727491 -3.842176 62.180792 11.300533 19.067262 -3.968912 0.000000 0.000000 0.000000 
0.574104 81.865036 -0.824730 0.000000 0.000000 0.000000 2.891643 -29.195220 1.197348 -17.529554 18.232794 10.805772 16.752154 13.181355 -0.952002 -1.506323 -3.869983 -4.952499 0.000000 0.000000 0.000000 2.891643 -29.195220 1.197348 -8.452304 -1.416429 -9.228434 10.812759 9.316358 0.810904 -5.606828 -0.529261 7.547123 0.000000 0.000000 0.000000 2.891643 -29.195220 1.197348 0.000000 0.000001 0.000000 8.054817 -0.317797 -2.540666 1.045027 -0.814358 2.320276 0.000000 0.000000 0.000000 1.051742 -0.537257 2.372766 -3.859432 18.003597 -6.653442 0.000000 0.000000 0.000000 1.051742 -0.537257 2.372766 -0.056871 -8.756180 -0.061015 -55.279101 0.492946 -41.432194 11.415645 -65.915779 12.820473 0.000000 0.000000 0.000000 1.051742 -0.537257 2.372766 4.899519 7.770214 4.883301 -2.486740 -5.619536 62.291756 11.240945 19.305414 -3.821051 0.000000 0.000000 0.000000 
0.650426 81.830734 -0.861120 0.000000 0.000000 0.000000 2.912141 -29.359114 1.264963 -17.688670 18.238101 10.753388 17.030909 13.098033 -0.945596 -1.627580 -3.629475 -4.928338 0.000000 0.000000 0.000000 2.912141 -29.359114 1.264963 -8.790226 -1.307198 -9.337209 11.260594 9.039609 0.788150 -5.743682 -0.132749 7.632581 0.000000 0.000000 0.000000 2.912141 -29.359114 1.264963 0.000000 0.000000 0.000000 8.215188 -0.292905 -2.474234 0.982374 -0.769362 2.257493 0.000000 0.000000 0.000000 0.987261 -0.504671 2.302933 -3.858818 18.023148 -6.759837 0.000000 0.000000 0.000000 0.987261 -0.504671 2.302933 -0.053858 -8.693457 -0.060970 -55.250411 0.554220 -41.417499 11.247232 -65.966336 12.636381 0.000000 0.000000 0.000000 0.987261 -0.504671 2.302933 4.923726 7.918126 4.671081 -3.132922 -7.632035 62.463801 11.059125 19.707838 -3.492764 0.000000 0.000000 0.000000 
0.765469 81.771805 -0.895466 0.000000 0.000000 0.000000 2.905070 -29.651692 1.376912 -17.874878 18.247619 10.639463 17.492208 13.094991 -0.915377 -1.855788 -3.332618 -4.927351 0.000000 0.000000 0.000000 2.905070 -29.651692 1.376912 -9.295024 -1.150041 -9.542765 11.997594 8.772912 0.766282 -5.999918 0.381494 7.744642 0.000000 0.000000 0.000000 2.905070 -29.651692 1.376912 0.000000 0.000002 0.000000 8.505574 -0.265180 -2.349850 0.868402 -0.696429 2.129974 0.000000 0.000000 0.000000 0.870422 -0.455850 2.163773 -3.853845 18.093888 -6.945732 0.000000 0.000000 0.000000 0.870422 -0.455850 2.163773 -0.049763 -8.608678 -0.060882 -55.187993 0.666059 -41.372549 11.060984 -66.061986 12.423084 0.000000 0.000000 0.000000 0.870422 -0.455850 2.163773 4.926548 8.143904 4.272907 -3.433653 -9.791449 62.874234 10.500005 20.433553 -2.575361 0.000000 0.000000 0.000000 
0.955174 81.658752 -0.938833 0.000000 0.000000 0.000000 2.960970 -30.111193 1.572303 -18.315661 18.232261 10.500944 18.394681 13.239131 -0.872870 -2.302765 -3.000190 -4.953283 0.000000 0.000000 0.000000 2.960970 -30.111193 1.572303 -10.193181 -0.912156 -9.852369 13.221033 10.151603 0.879969 -6.451756 -0.557514 7.575813 0.000000 0.000000 0.000000 2.960970 -30.111193 1.572303 0.000000 0.000001 0.000000 8.951153 -0.247813 -1.953095 0.703658 -0.585266 1.832114 0.000000 0.000000 0.000000 0.705412 -0.398426 1.847528 -3.990013 18.259493 -7.426546 0.000000 0.000000 0.000000 0.705412 -0.398426 1.847528 -0.045088 -8.511558 -0.060803 -54.961463 0.953834 -41.080186 10.524796 -66.349387 11.838288 0.000000 0.000000 0.000000 0.705412 -0.398426 1.847528 4.912892 8.203510 3.322312 -3.097456 -12.067721 64.055276 9.527916 21.706939 -0.948217 0.000000 0.000000 0.000000 
1.184855 81.517624 -0.986031 0.000000 0.000000 0.000000 3.046186 -30.655713 1.802633 -18.870599 18.204744 10.358510 19.493590 13.475483 -0.836950 -2.844920 -2.663973 -4.988583 0.000000 0.000000 0.000000 3.046186 -30.655713 1.802633 -11.242289 -0.642686 -10.214685 14.617349 10.484064 0.907570 -6.948771 -0.367873 7.629149 0.000000 0.000000 0.000000 3.046186 -30.655713 1.802633 0.000000 0.000000 0.000000 9.477353 -0.236611 -1.411053 0.523219 -0.455717 1.449045 0.000000 0.000000 0.000000 0.525950 -0.337822 1.442912 -4.183525 18.476958 -8.056299 0.000000 0.000000 0.000000 0.525950 -0.337822 1.442912 -0.037774 -8.420984 -0.060917 -54.622679 1.330425 -40.602801 9.694350 -66.760222 10.947863 0.000000 0.000000 0.000000 0.525950 -0.337822 1.442912 4.894750 8.134302 2.028112 -2.356096 -14.349258 65.757947 8.410242 23.219334 0.980596 0.000000 0.000000 0.000000 
1.459832 81.346924 -1.035368 0.000000 0.000000 0.000000 3.153001 -31.288755 2.051487 -19.540714 18.163167 10.232586 20.799847 13.829477 -0.823908 -3.487082 -2.349342 -5.025820 0.000000 0.000000 0.000000 3.153001 -31.288755 2.051487 -12.417275 -0.351274 -10.610999 16.126490 10.878896 0.940413 -7.464098 -0.131662 7.698937 0.000000 0.000000 0.000000 3.153001 -31.288755 2.051487 0.000000 -0.000001 0.000000 10.090003 -0.233139 -0.705177 0.344402 -0.309288 0.980643 0.000000 0.000000 0.000000 0.350051 -0.276457 0.950264 -4.407901 18.756980 -8.838358 0.000000 0.000000 0.000000 0.350051 -0.276457 0.950264 -0.027688 -8.362439 -0.056704 -54.108096 1.797406 -39.815502 8.330646 -67.347851 9.511629 0.000000 0.000000 0.000000 0.350051 -0.276457 0.950264 4.868985 7.838701 0.252767 -1.066329 -16.522905 68.216883 7.304609 24.994159 3.021338 0.000000 0.000000 0.000000 
1.828768 81.116302 -1.087698 0.000000 0.000000 0.000000 3.295598 -32.101295 2.324933 -20.447063 18.095814 10.148105 22.539255 14.408030 -0.852218 -4.340487 -2.074860 -5.073919 0.000000 0.000000 0.000000 3.295598 -32.101295 2.324933 -13.855908 -0.007187 -11.070968 17.900054 11.398126 0.983650 -8.040368 0.186124 7.802403 0.000000 0.000000 0.000000 3.295598 -32.101295 2.324933 0.000000 0.000001 0.000000 10.880472 -0.245837 0.340795 0.179507 -0.130447 0.341485 0.000000 0.000000 0.000000 0.192471 -0.215173 0.281751 -4.675729 19.169047 -9.928677 0.000000 0.000000 0.000000 0.192471 -0.215173 0.281751 -0.014240 -8.383940 -0.055466 -53.194466 2.464968 -38.334471 5.665607 -68.305054 6.743490 0.000000 0.000000 0.000000 0.192471 -0.215173 0.281751 4.824992 7.222738 -2.127288 0.929644 -18.378518 71.644996 6.500296 27.064578 4.773343 0.000000 0.000000 0.000000 
2.305382 80.819260 -1.133734 0.000000 0.000000 0.000000 3.446712 -33.160220 2.604384 -21.547859 18.014247 10.098669 24.702060 15.293804 -0.903774 -5.408709 -1.859572 -5.166676 0.000000 0.000000 0.000000 3.446712 -33.160220 2.604384 -15.527045 0.389942 -11.591492 19.876078 12.121404 1.044059 -8.635511 0.580008 7.937031 0.000000 0.000000 0.000000 3.446712 -33.160220 2.604384 0.000000 0.000001 0.000000 11.811863 -0.266925 1.524696 0.134683 0.049116 -0.351233 0.000000 0.000000 0.000000 0.159794 -0.170868 -0.438203 -4.822548 19.637465 -11.132554 0.000000 0.000000 0.000000 0.159794 -0.170868 -0.438203 -0.014421 -8.475008 -0.059111 -52.156906 3.449312 -36.125390 1.127514 -69.820270 2.055110 0.000000 0.000000 0.000000 0.159794 -0.170868 -0.438203 4.772133 6.247662 -4.990692 3.784924 -19.546553 75.900477 6.675809 29.317323 5.155012 0.000000 0.000000 0.000000 
2.835743 80.489441 -1.178907 0.000000 0.000000 0.000000 3.606660 -34.359038 2.897024 -22.691108 17.946310 10.043096 26.952948 16.412731 -0.950713 -6.512030 -1.733184 -5.310858 0.000000 0.000000 0.000000 3.606660 -34.359038 2.897024 -17.270524 0.803983 -12.128934 21.819960 12.924471 1.111447 -9.158373 1.066471 8.091047 0.000000 0.000000 0.000000 3.606660 -34.359038 2.897024 0.000000 -0.000003 0.000000 12.810904 -0.285276 2.716701 0.159127 0.223882 -1.040917 0.000000 0.000000 0.000000 0.196300 -0.134740 -1.153321 -4.885781 20.070024 -12.326601 0.000000 0.000000 0.000000 0.196300 -0.134740 -1.153321 -0.017915 -8.597620 -0.068375 -51.163680 4.637904 -33.588845 -5.232804 -71.442440 -4.517019 0.000000 0.000000 0.000000 0.196300 -0.134740 -1.153321 4.712381 5.394173 -7.848996 6.653778 -20.008798 79.987335 7.172247 31.601540 4.602533 0.000000 0.000000 0.000000 
